<?xml version="1.0" encoding="UTF-8"?>
<svg xmlns="http://www.w3.org/2000/svg" width="512" height="512" viewBox="0 0 512 512" fill="none">
<title>ASL sign: Love</title>
<defs>
  <filter id="shadow" x="-20%" y="-20%" width="140%" height="140%">
    <feDropShadow dx="0" dy="2" stdDeviation="3" flood-color="#000" flood-opacity="0.18"/>
  </filter>
  <marker id="arrow" markerWidth="12" markerHeight="12" refX="10" refY="6" orient="auto">
    <path d="M0,0 L12,6 L0,12 Z" fill="#1A1A1A"/>
  </marker>
</defs>
<rect x="0" y="0" width="512" height="512" fill="transparent"/>
<circle cx="256" cy="256" r="210" fill="#F7F7F7"/>
<g transform="translate(-55 70) rotate(20 256 256)">
<rect x="170" y="260" width="180" height="170" rx="70" fill="#F2C9A0" stroke="#1A1A1A" stroke-width="8" filter="url(#shadow)"/>
<rect x="178" y="230" width="164" height="70" rx="35" fill="#E8B98D" stroke="#1A1A1A" stroke-width="8" filter="url(#shadow)"/>
<rect x="132" y="310" width="70" height="48" rx="22" fill="#E8B98D" stroke="#1A1A1A" stroke-width="8" transform="rotate(-35 164 332)" filter="url(#shadow)"/>
</g>
<g transform="translate(55 70) rotate(-20 256 256)">
<rect x="170" y="260" width="180" height="170" rx="70" fill="#F2C9A0" stroke="#1A1A1A" stroke-width="8" filter="url(#shadow)"/>
<rect x="178" y="230" width="164" height="70" rx="35" fill="#E8B98D" stroke="#1A1A1A" stroke-width="8" filter="url(#shadow)"/>
<rect x="132" y="310" width="70" height="48" rx="22" fill="#E8B98D" stroke="#1A1A1A" stroke-width="8" transform="rotate(-35 164 332)" filter="url(#shadow)"/>
</g>
<path d="M256,170 
C226.0,140.0 176.0,180.0 256,240.0
C336.0,180.0 286.0,140.0 256,170Z" 
fill="#ff5a7a" stroke="#1A1A1A" stroke-width="8"/>

<text x="256" y="476" text-anchor="middle" font-family="Inter, Arial, sans-serif" font-size="40" font-weight="700" fill="#1A1A1A">Love</text>
</svg>
