<?xml version="1.0" encoding="UTF-8"?>
<svg xmlns="http://www.w3.org/2000/svg" width="512" height="512" viewBox="0 0 512 512" fill="none">
<title>ASL sign: Me</title>
<defs>
  <filter id="shadow" x="-20%" y="-20%" width="140%" height="140%">
    <feDropShadow dx="0" dy="2" stdDeviation="3" flood-color="#000" flood-opacity="0.18"/>
  </filter>
  <marker id="arrow" markerWidth="12" markerHeight="12" refX="10" refY="6" orient="auto">
    <path d="M0,0 L12,6 L0,12 Z" fill="#1A1A1A"/>
  </marker>
</defs>
<rect x="0" y="0" width="512" height="512" fill="transparent"/>
<circle cx="256" cy="256" r="210" fill="#F7F7F7"/>
<g transform="translate(0 -10) rotate(180 256 256)">
<rect x="170" y="290" width="180" height="140" rx="60" fill="#F2C9A0" stroke="#1A1A1A" stroke-width="8" filter="url(#shadow)"/>
<rect x="188" y="250" width="144" height="70" rx="28" fill="#E8B98D" stroke="#1A1A1A" stroke-width="8" filter="url(#shadow)"/>
<rect x="245" y="95" width="52" height="190" rx="24" fill="#E8B98D" stroke="#1A1A1A" stroke-width="8" filter="url(#shadow)"/>
<rect x="128" y="330" width="72" height="46" rx="22" fill="#E8B98D" stroke="#1A1A1A" stroke-width="8" transform="rotate(-25 160 353)" filter="url(#shadow)"/>
</g>
<circle cx="256" cy="380" r="46" fill="#FFFFFF" stroke="#1A1A1A" stroke-width="8" opacity="0.9"/>
<line x1="256" y1="320" x2="256" y2="340" stroke="#1A1A1A" stroke-width="8" stroke-linecap="round" opacity="0.9"/>
<line x1="246" y1="340" x2="266" y2="340" stroke="#1A1A1A" stroke-width="8" stroke-linecap="round" opacity="0.9"/>
<text x="256" y="476" text-anchor="middle" font-family="Inter, Arial, sans-serif" font-size="40" font-weight="700" fill="#1A1A1A">Me</text>
</svg>
