<?xml version="1.0" encoding="UTF-8"?>
<svg xmlns="http://www.w3.org/2000/svg" width="512" height="512" viewBox="0 0 512 512" fill="none">
<title>ASL sign: Morning</title>
<defs>
  <filter id="shadow" x="-20%" y="-20%" width="140%" height="140%">
    <feDropShadow dx="0" dy="2" stdDeviation="3" flood-color="#000" flood-opacity="0.18"/>
  </filter>
  <marker id="arrow" markerWidth="12" markerHeight="12" refX="10" refY="6" orient="auto">
    <path d="M0,0 L12,6 L0,12 Z" fill="#1A1A1A"/>
  </marker>
</defs>
<rect x="0" y="0" width="512" height="512" fill="transparent"/>
<circle cx="256" cy="256" r="210" fill="#F7F7F7"/>
<g transform="translate(-30 140) rotate(90 256 256)">
<rect x="170" y="240" width="180" height="190" rx="65" fill="#F2C9A0" stroke="#1A1A1A" stroke-width="8" filter="url(#shadow)"/>
<rect x="185" y="105" width="42" height="165" rx="20" fill="#E8B98D" stroke="#1A1A1A" stroke-width="8" filter="url(#shadow)"/>
<rect x="227" y="105" width="42" height="157" rx="20" fill="#E8B98D" stroke="#1A1A1A" stroke-width="8" filter="url(#shadow)"/>
<rect x="269" y="105" width="42" height="149" rx="20" fill="#E8B98D" stroke="#1A1A1A" stroke-width="8" filter="url(#shadow)"/>
<rect x="311" y="105" width="42" height="141" rx="20" fill="#E8B98D" stroke="#1A1A1A" stroke-width="8" filter="url(#shadow)"/>
<rect x="120" y="265" width="70" height="44" rx="22" fill="#E8B98D" stroke="#1A1A1A" stroke-width="8" transform="rotate(-35 155 287)" filter="url(#shadow)"/>
</g>
<g transform="translate(0 40)">
<rect x="170" y="240" width="180" height="190" rx="65" fill="#F2C9A0" stroke="#1A1A1A" stroke-width="8" filter="url(#shadow)"/>
<rect x="185" y="105" width="42" height="165" rx="20" fill="#E8B98D" stroke="#1A1A1A" stroke-width="8" filter="url(#shadow)"/>
<rect x="227" y="105" width="42" height="157" rx="20" fill="#E8B98D" stroke="#1A1A1A" stroke-width="8" filter="url(#shadow)"/>
<rect x="269" y="105" width="42" height="149" rx="20" fill="#E8B98D" stroke="#1A1A1A" stroke-width="8" filter="url(#shadow)"/>
<rect x="311" y="105" width="42" height="141" rx="20" fill="#E8B98D" stroke="#1A1A1A" stroke-width="8" filter="url(#shadow)"/>
<rect x="120" y="265" width="70" height="44" rx="22" fill="#E8B98D" stroke="#1A1A1A" stroke-width="8" transform="rotate(-35 155 287)" filter="url(#shadow)"/>
</g>
<path d="M310,250 Q310.0,80 310,140" stroke="#1A1A1A" stroke-width="10" fill="none" stroke-linecap="round" marker-end="url(#arrow)"/>
<circle cx="380" cy="140" r="28" fill="#FFD34D" stroke="#1A1A1A" stroke-width="8"/>
<line x1="420.0" y1="140.0" x2="440.0" y2="140.0" stroke="#1A1A1A" stroke-width="8" stroke-linecap="round"/>
<line x1="408.3" y1="168.3" x2="422.4" y2="182.4" stroke="#1A1A1A" stroke-width="8" stroke-linecap="round"/>
<line x1="380.0" y1="180.0" x2="380.0" y2="200.0" stroke="#1A1A1A" stroke-width="8" stroke-linecap="round"/>
<line x1="351.7" y1="168.3" x2="337.6" y2="182.4" stroke="#1A1A1A" stroke-width="8" stroke-linecap="round"/>
<line x1="340.0" y1="140.0" x2="320.0" y2="140.0" stroke="#1A1A1A" stroke-width="8" stroke-linecap="round"/>
<line x1="351.7" y1="111.7" x2="337.6" y2="97.6" stroke="#1A1A1A" stroke-width="8" stroke-linecap="round"/>
<line x1="380.0" y1="100.0" x2="380.0" y2="80.0" stroke="#1A1A1A" stroke-width="8" stroke-linecap="round"/>
<line x1="408.3" y1="111.7" x2="422.4" y2="97.6" stroke="#1A1A1A" stroke-width="8" stroke-linecap="round"/>
<text x="256" y="476" text-anchor="middle" font-family="Inter, Arial, sans-serif" font-size="40" font-weight="700" fill="#1A1A1A">Morning</text>
</svg>
