<?xml version="1.0" encoding="UTF-8"?>
<svg xmlns="http://www.w3.org/2000/svg" width="512" height="512" viewBox="0 0 512 512" fill="none">
<title>ASL sign: Name</title>
<defs>
  <filter id="shadow" x="-20%" y="-20%" width="140%" height="140%">
    <feDropShadow dx="0" dy="2" stdDeviation="3" flood-color="#000" flood-opacity="0.18"/>
  </filter>
  <marker id="arrow" markerWidth="12" markerHeight="12" refX="10" refY="6" orient="auto">
    <path d="M0,0 L12,6 L0,12 Z" fill="#1A1A1A"/>
  </marker>
</defs>
<rect x="0" y="0" width="512" height="512" fill="transparent"/>
<circle cx="256" cy="256" r="210" fill="#F7F7F7"/>
<g><rect x="165" y="300" width="190" height="130" rx="55" fill="#F2C9A0" stroke="#1A1A1A" stroke-width="8" filter="url(#shadow)"/>
<rect x="220" y="145" width="38" height="170" rx="18" fill="#E8B98D" stroke="#1A1A1A" stroke-width="8" filter="url(#shadow)"/>
<rect x="268" y="150" width="38" height="165" rx="18" fill="#E8B98D" stroke="#1A1A1A" stroke-width="8" filter="url(#shadow)"/>
<rect x="132" y="330" width="72" height="46" rx="22" fill="#E8B98D" stroke="#1A1A1A" stroke-width="8" transform="rotate(-25 160 353)" filter="url(#shadow)"/>
<rect x="215" y="220" width="40" height="160" rx="18" fill="#E8B98D" stroke="#1A1A1A" stroke-width="8" transform="rotate(35 235 300)" filter="url(#shadow)"/>
<rect x="260" y="215" width="40" height="160" rx="18" fill="#E8B98D" stroke="#1A1A1A" stroke-width="8" transform="rotate(35 280 295)" filter="url(#shadow)"/>
<line x1="330" y1="190" x2="360" y2="210" stroke="#1A1A1A" stroke-width="8" stroke-linecap="round" opacity="0.9"/>
<line x1="340" y1="160" x2="375" y2="185" stroke="#1A1A1A" stroke-width="8" stroke-linecap="round" opacity="0.9"/></g>
<text x="256" y="476" text-anchor="middle" font-family="Inter, Arial, sans-serif" font-size="40" font-weight="700" fill="#1A1A1A">Name</text>
</svg>
