<svg xmlns="http://www.w3.org/2000/svg" width="512" height="512" viewBox="0 0 512 512">
  <defs>
    <linearGradient id="bg" x1="0" y1="0" x2="1" y2="1">
      <stop offset="0%" stop-color="#fef3c7" />
      <stop offset="100%" stop-color="#fde68a" />
    </linearGradient>
    <radialGradient id="glow" cx="0.2" cy="0.15" r="0.8">
      <stop offset="0%" stop-color="#b45309" stop-opacity="0.45" />
      <stop offset="100%" stop-color="#b45309" stop-opacity="0" />
    </radialGradient>
    <filter id="grain" x="-20%" y="-20%" width="140%" height="140%">
      <feTurbulence type="fractalNoise" baseFrequency="0.8" numOctaves="2" stitchTiles="stitch" />
      <feColorMatrix type="saturate" values="0" />
      <feComponentTransfer>
        <feFuncA type="table" tableValues="0 0.07" />
      </feComponentTransfer>
    </filter>
  </defs>
  <rect width="512" height="512" rx="56" fill="url(#bg)" />
  <rect width="512" height="512" rx="56" fill="url(#glow)" />
  <g filter="url(#grain)">
    <rect width="512" height="512" rx="56" fill="#000000" opacity="0.15" />
  </g>
  <circle cx="120" cy="120" r="88" fill="#b45309" opacity="0.18" />
  <circle cx="410" cy="420" r="120" fill="#b45309" opacity="0.12" />
  <g transform="translate(166 120) scale(6.2)" fill="none" stroke="#b45309" stroke-width="1.2" stroke-linecap="round" stroke-linejoin="round">
    <path d="M22 12c0-1.6-1.4-3-3-3h-1V7.5a2.5 2.5 0 10-5 0V9h-1V6.5a2.5 2.5 0 10-5 0V9H6a2.5 2.5 0 00-2.5 2.5v2.5a7.5 7.5 0 0015 0V12z" />
  </g>
  <text x="50%" y="360" text-anchor="middle" font-family="Manrope, 'IBM Plex Sans', Arial, sans-serif" font-size="48" fill="#1c1917" letter-spacing="2">THANK YOU</text>
  <text x="50%" y="404" text-anchor="middle" font-family="'IBM Plex Mono', Menlo, monospace" font-size="16" fill="#6b7280" letter-spacing="4">ASL WORD</text>
</svg>
